<?xml version="1.0" encoding="UTF-8"?>
<svg version="1.1" xmlns="http://www.w3.org/2000/svg" width="281" height="297">
<path d="M0 0 C92.73 0 185.46 0 281 0 C281 98.01 281 196.02 281 297 C188.27 297 95.54 297 0 297 C0 198.99 0 100.98 0 0 Z " fill="#08A9FC" transform="translate(0,0)"/>
<path d="M0 0 C21.78 0 43.56 0 66 0 C66 4.62 66 9.24 66 14 C70.62 14 75.24 14 80 14 C80 18.29 80 22.58 80 27 C84.29 27 88.58 27 93 27 C93 35.91 93 44.82 93 54 C88.71 54 84.42 54 80 54 C80 71.49 80 88.98 80 107 C75.38 107 70.76 107 66 107 C66 111.29 66 115.58 66 120 C61.71 120 57.42 120 53 120 C53 144.42 53 168.84 53 194 C96.89 194 140.78 194 186 194 C186 212.48 186 230.96 186 250 C93.27 250 0.54 250 -95 250 C-95 231.52 -95 213.04 -95 194 C-63.65 194 -32.3 194 0 194 C0 187.4 0 180.8 0 174 C-4.29 174 -8.58 174 -13 174 C-13 151.89 -13 129.78 -13 107 C-17.62 107 -22.24 107 -27 107 C-27 98.09 -27 89.18 -27 80 C-31.29 80 -35.58 80 -40 80 C-40 66.8 -40 53.6 -40 40 C-35.71 40 -31.42 40 -27 40 C-27 35.71 -27 31.42 -27 27 C-22.38 27 -17.76 27 -13 27 C-13 22.71 -13 18.42 -13 14 C-8.71 14 -4.42 14 0 14 C0 9.38 0 4.76 0 0 Z " fill="#442434" transform="translate(95,47)"/>
<path d="M0 0 C8.91 0 17.82 0 27 0 C27 6.6 27 13.2 27 20 C75.18 20 123.36 20 173 20 C173 38.48 173 56.96 173 76 C80.27 76 -12.46 76 -108 76 C-108 57.52 -108 39.04 -108 20 C-72.36 20 -36.72 20 0 20 C0 13.4 0 6.8 0 0 Z " fill="#2EB082" transform="translate(108,221)"/>
<path d="M0 0 C4.62 0 9.24 0 14 0 C14 4.29 14 8.58 14 13 C18.29 13 22.58 13 27 13 C27 21.91 27 30.82 27 40 C22.71 40 18.42 40 14 40 C14 57.49 14 74.98 14 93 C9.38 93 4.76 93 0 93 C0 97.29 0 101.58 0 106 C-4.29 106 -8.58 106 -13 106 C-13 130.42 -13 154.84 -13 180 C-17.29 180 -21.58 180 -26 180 C-26 173.4 -26 166.8 -26 160 C-34.91 160 -43.82 160 -53 160 C-53 166.6 -53 173.2 -53 180 C-57.29 180 -61.58 180 -66 180 C-66 173.4 -66 166.8 -66 160 C-70.29 160 -74.58 160 -79 160 C-79 137.89 -79 115.78 -79 93 C-83.62 93 -88.24 93 -93 93 C-93 84.09 -93 75.18 -93 66 C-97.29 66 -101.58 66 -106 66 C-106 52.8 -106 39.6 -106 26 C-101.71 26 -97.42 26 -93 26 C-93 34.91 -93 43.82 -93 53 C-88.38 53 -83.76 53 -79 53 C-79 61.91 -79 70.82 -79 80 C-74.71 80 -70.42 80 -66 80 C-66 88.58 -66 97.16 -66 106 C-61.71 106 -57.42 106 -53 106 C-53 119.2 -53 132.4 -53 146 C-44.09 146 -35.18 146 -26 146 C-26 128.51 -26 111.02 -26 93 C-21.71 93 -17.42 93 -13 93 C-13 88.71 -13 84.42 -13 80 C-8.71 80 -4.42 80 0 80 C0 53.6 0 27.2 0 0 Z " fill="#140C1C" transform="translate(161,61)"/>
<path d="M0 0 C8.91 0 17.82 0 27 0 C27 6.6 27 13.2 27 20 C75.18 20 123.36 20 173 20 C173 24.29 173 28.58 173 33 C80.27 33 -12.46 33 -108 33 C-108 28.71 -108 24.42 -108 20 C-72.36 20 -36.72 20 0 20 C0 13.4 0 6.8 0 0 Z " fill="#434A5F" transform="translate(108,221)"/>
<path d="M0 0 C92.73 0 185.46 0 281 0 C281 4.29 281 8.58 281 13 C188.27 13 95.54 13 0 13 C0 8.71 0 4.42 0 0 Z " fill="#36E377" transform="translate(0,254)"/>
<path d="M0 0 C4.29 0 8.58 0 13 0 C13 8.91 13 17.82 13 27 C17.29 27 21.58 27 26 27 C26 31.29 26 35.58 26 40 C21.71 40 17.42 40 13 40 C13 57.49 13 74.98 13 93 C4.09 93 -4.82 93 -14 93 C-14 79.8 -14 66.6 -14 53 C-18.29 53 -22.58 53 -27 53 C-27 44.42 -27 35.84 -27 27 C-22.71 27 -18.42 27 -14 27 C-14 22.38 -14 17.76 -14 13 C-9.38 13 -4.76 13 0 13 C0 8.71 0 4.42 0 0 Z " fill="#D27D2C" transform="translate(122,114)"/>
<path d="M0 0 C17.49 0 34.98 0 53 0 C53 13.2 53 26.4 53 40 C35.51 40 18.02 40 0 40 C0 44.29 0 48.58 0 53 C-4.29 53 -8.58 53 -13 53 C-13 48.71 -13 44.42 -13 40 C-17.29 40 -21.58 40 -26 40 C-26 35.38 -26 30.76 -26 26 C-12.8 26 0.4 26 14 26 C14 21.71 14 17.42 14 13 C9.38 13 4.76 13 0 13 C0 8.71 0 4.42 0 0 Z " fill="#DAD45E" transform="translate(108,61)"/>
<path d="M0 0 C21.78 0 43.56 0 66 0 C66 4.62 66 9.24 66 14 C48.51 14 31.02 14 13 14 C13 18.29 13 22.58 13 27 C17.62 27 22.24 27 27 27 C27 31.29 27 35.58 27 40 C9.18 40 -8.64 40 -27 40 C-27 35.71 -27 31.42 -27 27 C-22.38 27 -17.76 27 -13 27 C-13 22.71 -13 18.42 -13 14 C-8.71 14 -4.42 14 0 14 C0 9.38 0 4.76 0 0 Z " fill="#854C30" transform="translate(95,47)"/>
<path d="M0 0 C4.62 0 9.24 0 14 0 C14 4.29 14 8.58 14 13 C18.29 13 22.58 13 27 13 C27 21.91 27 30.82 27 40 C22.71 40 18.42 40 14 40 C14 57.49 14 74.98 14 93 C5.09 93 -3.82 93 -13 93 C-13 88.71 -13 84.42 -13 80 C-8.71 80 -4.42 80 0 80 C0 53.6 0 27.2 0 0 Z " fill="#140C1C" transform="translate(161,61)"/>
<path d="M0 0 C4.29 0 8.58 0 13 0 C13 8.91 13 17.82 13 27 C17.62 27 22.24 27 27 27 C27 35.91 27 44.82 27 54 C31.29 54 35.58 54 40 54 C40 58.29 40 62.58 40 67 C31.09 67 22.18 67 13 67 C13 58.09 13 49.18 13 40 C8.71 40 4.42 40 0 40 C0 26.8 0 13.6 0 0 Z " fill="#140C1C" transform="translate(55,87)"/>
<path d="M0 0 C4.62 0 9.24 0 14 0 C14 4.62 14 9.24 14 14 C18.29 14 22.58 14 27 14 C27 18.29 27 22.58 27 27 C31.29 27 35.58 27 40 27 C40 35.91 40 44.82 40 54 C31.42 54 22.84 54 14 54 C14 45.09 14 36.18 14 27 C9.38 27 4.76 27 0 27 C0 18.09 0 9.18 0 0 Z " fill="#854C30" transform="translate(68,87)"/>
<path d="M0 0 C8.91 0 17.82 0 27 0 C27 13.2 27 26.4 27 40 C18.09 40 9.18 40 0 40 C0 26.8 0 13.6 0 0 Z " fill="#597DCE" transform="translate(108,167)"/>
<path d="M0 0 C17.49 0 34.98 0 53 0 C53 4.29 53 8.58 53 13 C48.71 13 44.42 13 40 13 C40 17.29 40 21.58 40 26 C31.42 26 22.84 26 14 26 C14 21.71 14 17.42 14 13 C9.38 13 4.76 13 0 13 C0 8.71 0 4.42 0 0 Z " fill="#D27D2C" transform="translate(108,61)"/>
<path d="M0 0 C21.78 0 43.56 0 66 0 C66 4.62 66 9.24 66 14 C44.22 14 22.44 14 0 14 C0 9.38 0 4.76 0 0 Z " fill="#140C1C" transform="translate(95,47)"/>
<path d="M0 0 C4.62 0 9.24 0 14 0 C14 4.29 14 8.58 14 13 C18.29 13 22.58 13 27 13 C27 21.91 27 30.82 27 40 C18.09 40 9.18 40 0 40 C0 26.8 0 13.6 0 0 Z " fill="#854C30" transform="translate(161,61)"/>
<path d="M0 0 C4.29 0 8.58 0 13 0 C13 8.91 13 17.82 13 27 C17.29 27 21.58 27 26 27 C26 31.29 26 35.58 26 40 C17.42 40 8.84 40 0 40 C0 26.8 0 13.6 0 0 Z " fill="#DAD45E" transform="translate(122,114)"/>
<path d="M0 0 C8.58 0 17.16 0 26 0 C26 8.91 26 17.82 26 27 C21.71 27 17.42 27 13 27 C13 22.71 13 18.42 13 14 C8.71 14 4.42 14 0 14 C0 9.38 0 4.76 0 0 Z " fill="#D27D2C" transform="translate(82,87)"/>
<path d="M0 0 C4.29 0 8.58 0 13 0 C13 13.2 13 26.4 13 40 C8.71 40 4.42 40 0 40 C0 26.8 0 13.6 0 0 Z " fill="#140C1C" transform="translate(55,87)"/>
<path d="M0 0 C8.91 0 17.82 0 27 0 C27 6.6 27 13.2 27 20 C22.71 20 18.42 20 14 20 C14 17.69 14 15.38 14 13 C9.38 13 4.76 13 0 13 C0 8.71 0 4.42 0 0 Z " fill="#D04648" transform="translate(108,221)"/>
<path d="M0 0 C8.91 0 17.82 0 27 0 C27 4.29 27 8.58 27 13 C18.09 13 9.18 13 0 13 C0 8.71 0 4.42 0 0 Z " fill="#D27D2C" transform="translate(108,194)"/>
<path d="M0 0 C4.29 0 8.58 0 13 0 C13 8.91 13 17.82 13 27 C8.71 27 4.42 27 0 27 C0 18.09 0 9.18 0 0 Z " fill="#DEEED6" transform="translate(148,114)"/>
<path d="M0 0 C4.29 0 8.58 0 13 0 C13 8.91 13 17.82 13 27 C8.71 27 4.42 27 0 27 C0 18.09 0 9.18 0 0 Z " fill="#140C1C" transform="translate(135,114)"/>
<path d="M0 0 C4.29 0 8.58 0 13 0 C13 8.91 13 17.82 13 27 C8.71 27 4.42 27 0 27 C0 18.09 0 9.18 0 0 Z " fill="#D27D2C" transform="translate(148,74)"/>
<path d="M0 0 C4.29 0 8.58 0 13 0 C13 8.91 13 17.82 13 27 C8.71 27 4.42 27 0 27 C0 18.09 0 9.18 0 0 Z " fill="#140C1C" transform="translate(175,74)"/>
<path d="M0 0 C8.58 0 17.16 0 26 0 C26 4.29 26 8.58 26 13 C17.42 13 8.84 13 0 13 C0 8.71 0 4.42 0 0 Z " fill="#D2AA99" transform="translate(122,141)"/>
<path d="M0 0 C4.62 0 9.24 0 14 0 C14 4.62 14 9.24 14 14 C9.38 14 4.76 14 0 14 C0 9.38 0 4.76 0 0 Z " fill="#442434" transform="translate(161,87)"/>
<path d="M0 0 C4.62 0 9.24 0 14 0 C14 4.29 14 8.58 14 13 C9.38 13 4.76 13 0 13 C0 8.71 0 4.42 0 0 Z " fill="#6DC2CA" transform="translate(108,181)"/>
<path d="M0 0 C4.29 0 8.58 0 13 0 C13 4.62 13 9.24 13 14 C8.71 14 4.42 14 0 14 C0 9.38 0 4.76 0 0 Z " fill="#442434" transform="translate(95,127)"/>
<path d="M0 0 C4.62 0 9.24 0 14 0 C14 4.29 14 8.58 14 13 C9.38 13 4.76 13 0 13 C0 8.71 0 4.42 0 0 Z " fill="#442434" transform="translate(108,114)"/>
<path d="M0 0 C4.62 0 9.24 0 14 0 C14 4.29 14 8.58 14 13 C9.38 13 4.76 13 0 13 C0 8.71 0 4.42 0 0 Z " fill="#442434" transform="translate(68,114)"/>
<path d="M0 0 C4.62 0 9.24 0 14 0 C14 4.29 14 8.58 14 13 C9.38 13 4.76 13 0 13 C0 8.71 0 4.42 0 0 Z " fill="#854C30" transform="translate(108,101)"/>
<path d="M0 0 C4.62 0 9.24 0 14 0 C14 4.29 14 8.58 14 13 C9.38 13 4.76 13 0 13 C0 8.71 0 4.42 0 0 Z " fill="#140C1C" transform="translate(68,74)"/>
<path d="M0 0 C4.62 0 9.24 0 14 0 C14 4.29 14 8.58 14 13 C9.38 13 4.76 13 0 13 C0 8.71 0 4.42 0 0 Z " fill="#140C1C" transform="translate(161,61)"/>
<path d="M0 0 C4.62 0 9.24 0 14 0 C14 2.31 14 4.62 14 7 C15.98 7 17.96 7 20 7 C20 7.99 20 8.98 20 10 C11.42 10 2.84 10 -6 10 C-6 9.01 -6 8.02 -6 7 C-4.02 7 -2.04 7 0 7 C0 4.69 0 2.38 0 0 Z " fill="#9F5A52" transform="translate(37,287)"/>
<path d="M0 0 C4.29 0 8.58 0 13 0 C13 2.31 13 4.62 13 7 C15.31 7 17.62 7 20 7 C20 7.99 20 8.98 20 10 C11.09 10 2.18 10 -7 10 C-7 9.01 -7 8.02 -7 7 C-4.69 7 -2.38 7 0 7 C0 4.69 0 2.38 0 0 Z " fill="#9F5A52" transform="translate(237,287)"/>
<path d="M0 0 C4.29 0 8.58 0 13 0 C13 2.31 13 4.62 13 7 C15.31 7 17.62 7 20 7 C20 7.99 20 8.98 20 10 C11.09 10 2.18 10 -7 10 C-7 9.01 -7 8.02 -7 7 C-4.69 7 -2.38 7 0 7 C0 4.69 0 2.38 0 0 Z " fill="#9F5A52" transform="translate(197,287)"/>
<path d="M0 0 C4.29 0 8.58 0 13 0 C13 2.31 13 4.62 13 7 C15.31 7 17.62 7 20 7 C20 7.99 20 8.98 20 10 C11.09 10 2.18 10 -7 10 C-7 9.01 -7 8.02 -7 7 C-4.69 7 -2.38 7 0 7 C0 4.69 0 2.38 0 0 Z " fill="#9F5A52" transform="translate(157,287)"/>
<path d="M0 0 C4.29 0 8.58 0 13 0 C13 2.31 13 4.62 13 7 C15.31 7 17.62 7 20 7 C20 7.99 20 8.98 20 10 C11.09 10 2.18 10 -7 10 C-7 9.01 -7 8.02 -7 7 C-4.69 7 -2.38 7 0 7 C0 4.69 0 2.38 0 0 Z " fill="#9F5A52" transform="translate(117,287)"/>
<path d="M0 0 C4.29 0 8.58 0 13 0 C13 2.31 13 4.62 13 7 C15.31 7 17.62 7 20 7 C20 7.99 20 8.98 20 10 C11.42 10 2.84 10 -6 10 C-6 9.01 -6 8.02 -6 7 C-4.02 7 -2.04 7 0 7 C0 4.69 0 2.38 0 0 Z " fill="#9F5A52" transform="translate(77,287)"/>
<path d="M0 0 C4.29 0 8.58 0 13 0 C13 4.29 13 8.58 13 13 C8.71 13 4.42 13 0 13 C0 8.71 0 4.42 0 0 Z " fill="#DAD45E" transform="translate(122,194)"/>
<path d="M0 0 C4.29 0 8.58 0 13 0 C13 4.29 13 8.58 13 13 C8.71 13 4.42 13 0 13 C0 8.71 0 4.42 0 0 Z " fill="#854C30" transform="translate(95,154)"/>
<path d="M0 0 C4.29 0 8.58 0 13 0 C13 4.29 13 8.58 13 13 C8.71 13 4.42 13 0 13 C0 8.71 0 4.42 0 0 Z " fill="#854C30" transform="translate(148,141)"/>
<path d="M0 0 C4.29 0 8.58 0 13 0 C13 4.29 13 8.58 13 13 C8.71 13 4.42 13 0 13 C0 8.71 0 4.42 0 0 Z " fill="#442434" transform="translate(82,141)"/>
<path d="M0 0 C4.29 0 8.58 0 13 0 C13 4.29 13 8.58 13 13 C8.71 13 4.42 13 0 13 C0 8.71 0 4.42 0 0 Z " fill="#DAD45E" transform="translate(148,114)"/>
<path d="M0 0 C4.29 0 8.58 0 13 0 C13 4.29 13 8.58 13 13 C8.71 13 4.42 13 0 13 C0 8.71 0 4.42 0 0 Z " fill="#D2AA99" transform="translate(122,114)"/>
<path d="M0 0 C4.29 0 8.58 0 13 0 C13 4.29 13 8.58 13 13 C8.71 13 4.42 13 0 13 C0 8.71 0 4.42 0 0 Z " fill="#DAD45E" transform="translate(148,74)"/>
<path d="M0 0 C4.29 0 8.58 0 13 0 C13 4.29 13 8.58 13 13 C8.71 13 4.42 13 0 13 C0 8.71 0 4.42 0 0 Z " fill="#854C30" transform="translate(148,61)"/>
<path d="M0 0 C4.29 0 8.58 0 13 0 C13 4.29 13 8.58 13 13 C8.71 13 4.42 13 0 13 C0 8.71 0 4.42 0 0 Z " fill="#140C1C" transform="translate(82,61)"/>
<path d="M0 0 C3.63 0 7.26 0 11 0 C11 2.31 11 4.62 11 7 C12.98 7 14.96 7 17 7 C17 7.99 17 8.98 17 10 C11.39 10 5.78 10 0 10 C0 6.7 0 3.4 0 0 Z " fill="#9F5A52" transform="translate(0,287)"/>
<path d="M0 0 C4.62 0 9.24 0 14 0 C14 2.31 14 4.62 14 7 C9.38 7 4.76 7 0 7 C0 4.69 0 2.38 0 0 Z " fill="#854C30" transform="translate(108,234)"/>
<path d="M0 0 C4.29 0 8.58 0 13 0 C13 2.31 13 4.62 13 7 C8.71 7 4.42 7 0 7 C0 4.69 0 2.38 0 0 Z " fill="#DAD45E" transform="translate(122,234)"/>
<path d="M0 0 C1.32 0 2.64 0 4 0 C4 3.3 4 6.6 4 10 C0.37 10 -3.26 10 -7 10 C-7 9.01 -7 8.02 -7 7 C-4.69 7 -2.38 7 0 7 C0 4.69 0 2.38 0 0 Z " fill="#9F5A52" transform="translate(277,287)"/>
</svg>
